<?xml version="1.0" encoding="utf-8"?>
<!-- Generator: Adobe Illustrator 24.0.0, SVG Export Plug-In . SVG Version: 6.00 Build 0)  -->
<svg version="1.1" id="Capa_1" xmlns="http://www.w3.org/2000/svg" xmlns:xlink="http://www.w3.org/1999/xlink" x="0px" y="0px"
	 viewBox="0 0 75.3 60" style="enable-background:new 0 0 75.3 60;" xml:space="preserve">
<style type="text/css">
	.st0{fill:#FAFAFA;}
</style>
<title>skills_and_tools</title>
<g>
	<path class="st0" d="M42.6,22.7c0-3.6-3.3-4.1-5.2-4.1h-6.2l0,8.5h5.2C39.1,27.2,42.6,26.4,42.6,22.7z"/>
	<path class="st0" d="M68.3,21c-1.1-4.3-1.6-8.7-1.3-13.2c0-0.1,0-0.2,0-0.2c0.1-4.1-3.2-7.5-7.4-7.6h-44c-0.1,0-0.1,0-0.2,0
		c-4.1,0.2-7.3,3.7-7.1,7.8C8.6,12.3,8.1,16.7,7,21c-1.3,4.1-3.5,6.8-7,7.1v3.8c3.5,0.3,5.7,3,7,7.1c1.1,4.3,1.6,8.7,1.3,13.2
		c0,0.1,0,0.1,0,0.2c-0.1,4.1,3.2,7.6,7.3,7.6h44c0.1,0,0.1,0,0.2,0c4.1-0.2,7.3-3.7,7.1-7.8c-0.3-4.4,0.2-8.8,1.3-13.1
		c1.3-4.1,3.5-6.8,7-7.1v-3.8C71.7,27.8,69.6,25.1,68.3,21z M38.6,46.5H25v-33h13.5c6,0,10.1,3.4,10.1,8.5c0,3.1-1.9,5.8-4.6,7
		c3.8,1,6.2,4.1,6.2,8C50.3,42.9,45.8,46.5,38.6,46.5z"/>
	<path class="st0" d="M37.3,31.9h-6.2v9.5l6.5,0c4.3,0,6.5-1.6,6.5-4.8C44.1,33.5,41.8,31.9,37.3,31.9z"/>
</g>
</svg>
