<?xml version="1.0" encoding="utf-8"?>
<!-- Generator: Adobe Illustrator 24.0.2, SVG Export Plug-In . SVG Version: 6.00 Build 0)  -->
<svg version="1.1" xmlns="http://www.w3.org/2000/svg" xmlns:xlink="http://www.w3.org/1999/xlink" x="0px" y="0px"
	 viewBox="0 0 592 1075" style="enable-background:new 0 0 592 1075;" xml:space="preserve">
<style type="text/css">
	.st0{fill:#FF5851;stroke:#FF5851;stroke-width:4;stroke-miterlimit:10;}
	.st1{fill:none;stroke:#FF5851;stroke-width:4;stroke-miterlimit:10;}
</style>
<g id="Capa_2">
	<g>
		<circle class="st0" cx="69.8" cy="67.3" r="17.6"/>
		<path class="st0" d="M51.9,67.3c0-9.9,8.1-18,18-18c9.9,0,18,8.1,18,18c0,9.9-8.1,18-18,18C59.9,85.3,51.9,77.3,51.9,67.3z
			 M52.7,67.3c0,9.5,7.7,17.2,17.2,17.2c9.5,0,17.2-7.7,17.2-17.2s-7.7-17.2-17.2-17.2C60.4,50.2,52.7,57.9,52.7,67.3z"/>
	</g>
	<g>
		<circle class="st1" cx="122.2" cy="67.3" r="17.6"/>
		<path class="st1" d="M104.2,67.3c0-9.9,8.1-18,18-18c9.9,0,18,8.1,18,18c0,9.9-8.1,18-18,18C112.3,85.3,104.2,77.3,104.2,67.3z
			 M105.1,67.3c0,9.5,7.7,17.2,17.2,17.2c9.5,0,17.2-7.7,17.2-17.2s-7.7-17.2-17.2-17.2C112.8,50.2,105.1,57.9,105.1,67.3z"/>
	</g>
	<g>
		<circle class="st1" cx="174.6" cy="67.3" r="17.6"/>
		<path class="st1" d="M156.6,67.3c0-9.9,8.1-18,18-18s18,8.1,18,18c0,9.9-8.1,18-18,18S156.6,77.3,156.6,67.3z M157.5,67.3
			c0,9.5,7.7,17.2,17.2,17.2c9.5,0,17.2-7.7,17.2-17.2s-7.7-17.2-17.2-17.2C165.1,50.2,157.5,57.9,157.5,67.3z"/>
	</g>
</g>
<g id="Capa_1">
	<path class="st1" d="M569,111H23V40.2c0-9.1,7.4-16.5,16.5-16.5h512.9c9.1,0,16.5,7.4,16.5,16.5V111z"/>
	<path class="st1" d="M552.5,551.3H39.5c-9.1,0-16.5-8.3-16.5-18.5V111h546v421.8C569,543,561.6,551.3,552.5,551.3z"/>
</g>
</svg>
