<?xml version="1.0" encoding="utf-8"?>
<!-- Generator: Adobe Illustrator 24.0.2, SVG Export Plug-In . SVG Version: 6.00 Build 0)  -->
<svg version="1.1" xmlns="http://www.w3.org/2000/svg" xmlns:xlink="http://www.w3.org/1999/xlink" x="0px" y="0px"
	 viewBox="0 0 592 1075" style="enable-background:new 0 0 592 1075;" xml:space="preserve">
<style type="text/css">
	.st0{fill:#FF5851;stroke:#FF5851;stroke-width:4;stroke-miterlimit:10;}
	.st1{fill:none;stroke:#FF5851;stroke-width:4;stroke-miterlimit:10;}
</style>
<g id="Capa_2">
	<g>
		<circle class="st0" cx="60" cy="55.6" r="10"/>
		<path class="st0" d="M49.8,55.6c0-5.6,4.6-10.2,10.2-10.2c5.6,0,10.2,4.6,10.2,10.2c0,5.6-4.6,10.2-10.2,10.2
			C54.4,65.8,49.8,61.2,49.8,55.6z M50.3,55.6c0,5.4,4.4,9.7,9.7,9.7c5.4,0,9.7-4.4,9.7-9.7s-4.4-9.7-9.7-9.7
			C54.7,45.9,50.3,50.3,50.3,55.6z"/>
	</g>
	<g>
		<circle class="st1" cx="89.7" cy="55.6" r="10"/>
		<path class="st1" d="M79.5,55.6c0-5.6,4.6-10.2,10.2-10.2c5.6,0,10.2,4.6,10.2,10.2c0,5.6-4.6,10.2-10.2,10.2
			C84.1,65.8,79.5,61.2,79.5,55.6z M80,55.6c0,5.4,4.4,9.7,9.7,9.7c5.4,0,9.7-4.4,9.7-9.7s-4.4-9.7-9.7-9.7
			C84.3,45.9,80,50.3,80,55.6z"/>
	</g>
	<g>
		<circle class="st1" cx="119.4" cy="55.6" r="10"/>
		<path class="st1" d="M109.2,55.6c0-5.6,4.6-10.2,10.2-10.2c5.6,0,10.2,4.6,10.2,10.2c0,5.6-4.6,10.2-10.2,10.2
			C113.7,65.8,109.2,61.2,109.2,55.6z M109.6,55.6c0,5.4,4.4,9.7,9.7,9.7c5.4,0,9.7-4.4,9.7-9.7s-4.4-9.7-9.7-9.7
			C114,45.9,109.6,50.3,109.6,55.6z"/>
	</g>
</g>
<g id="Capa_1">
	<path class="st1" d="M569,87.5H23V35.8c0-6.7,7.4-12.1,16.5-12.1h512.9c9.1,0,16.5,5.4,16.5,12.1V87.5z"/>
	<path class="st1" d="M552.5,1052H39.5c-9.1,0-16.5-18.1-16.5-40.4V88h546v923.5C569,1033.8,561.6,1052,552.5,1052z"/>
</g>
</svg>
