<svg xmlns="http://www.w3.org/2000/svg" viewBox="0 0 42.51 60"><defs><style>.a{fill:#f3e9d7;}</style></defs><title>css</title><path class="a" d="M33.19,2.21H29.68l3.65,4V8.07H25.8V5.86h3.66l-3.66-4V0h7.39Zm-8.88,0H20.79l3.66,4V8.07H16.92V5.86h3.66l-3.66-4V0h7.39Zm-8.79.09h-3.8V5.77h3.8v2.3H9V0h6.49Z"/><path class="a" d="M.57,11.52,4.36,54.1l16.89,5.69,16.9-5.69,3.79-42.58Zm33.78,8.62-.51,5.17L21.25,30.48H33.32L31.94,46.34l-10.51,3.1-10.69-3.1-.69-7.93h5.34l.35,4.14,5.69,1.38,5.86-1.73.34-6.72H9.7l-.34-5,12.76-5.34H8.84l-.69-5Z"/></svg>