<svg xmlns="http://www.w3.org/2000/svg" viewBox="0 0 26.94 60"><defs><style>.a{fill:#fafafa;}</style></defs><title>skills_and_tools</title><path class="a" d="M20.79,58l.57-9.57,1.58-2.7a27.73,27.73,0,0,1-9.64,1.47,27.58,27.58,0,0,1-9.59-1.45l1.77,2.95L6.11,58c0,1,3.28,1.8,7.34,1.8S20.79,59,20.79,58"/><path class="a" d="M19,13.36,20.18,8.6l6.67-7L25.09.08,18,7.56l-1.4,5.69c-1,0-2.07-.06-3.16-.06C6,13.19,0,14,0,15.09S6,17,13.47,17s13.47-.85,13.47-1.89c0-.77-3.27-1.44-8-1.73"/><path class="a" d="M18.27,16a6.94,6.94,0,0,1-1,.06c-.77,0-1.32,0-1.53-.21a.28.28,0,0,1-.09-.23c0-.13.09-.21.22-.26l.11.18c-.05,0-.08,0-.08.06a3.47,3.47,0,0,0,1.39.17,3.39,3.39,0,0,0,1.33-.16s-.06-.06-.16-.08l.12-.19c.16.05.29.15.29.31s-.35.31-.58.35"/><path class="a" d="M26.84,1.59C27,1.4,26.75.9,26.27.48s-1-.6-1.18-.4.09.69.57,1.1,1,.6,1.18.41"/><path class="a" d="M20.46,34.66c-.15-1.52,3.33-3.72,2.44-3.79C21,31,20,33.12,19,35.37c-.35.83-1.57,4.34-2.36,3.91s1-3.32,1.54-5c-.59.43-2.76,2.12-3.32.54-.9.76-2.82,1.18-2.6-.83-.48.85-1.55,2-2.84,1.54-1.69-.64,1-6,1.64-5.76s-.13,1.5-.34,2c-.46,1.05-1,2.37-.64,2.64.61.46,2.27-1.75,2.3-1.8.31-.41,1.2-3.08,1.91-2.77s-1.78,3.84-.85,4.54c.19.14,1-.09,1.42-.59.3-.33.2-1,1.21-3.45s1.9-5.39,2.59-5.16.12,1.76-.13,2.33c-1.16,2.68-3.17,7.12-2.22,6.78a4.07,4.07,0,0,0,2.37-1.44c.92-1.08.88-2.87,1.5-2.83s.51.61.36,1c.61-.69,2.89-2.16,3.43-.71.66,1.72-3.25,4.2-2.28,4.08a6,6,0,0,0,3.15-2l1.81-16.24s-1.82,1.5-13.39,1.5S.09,16.16.09,16.16L1.63,31c.82-2.32,2.76-7,5.82-6.86,1.39.07,3.24,2.75,1.65,2.84-.67,0-.74-1.34-1.54-1.54a2.41,2.41,0,0,0-1.89.83c-1,1-3.25,5-3,7,.38,2.54,3.5-.88,4-1.89.37-.72.62-2.83,1.43-2.61s-.07,2.41-.66,4.34c-.66,2.16-1,4.45-1.84,4.19s.52-3.06.47-3.55c-.78.72-2.21,2.54-4,1.64l1,9.21s2.54,2,10.19,2,10.29-2,10.29-2L24.7,33.93c-1,1-4,2.62-4.24.73"/></svg>