<svg xmlns="http://www.w3.org/2000/svg" viewBox="0 0 330 330"><defs><style>.a{fill:#f3e9d7;}</style></defs><title>Recurso 1</title><path class="a" d="M315,0H15A15,15,0,0,0,0,15V315a15,15,0,0,0,15,15H315a15,15,0,0,0,15-15V15A15,15,0,0,0,315,0ZM300,300H30V30H300Z"/><path class="a" d="M84.4,245.6a15,15,0,0,0,21.2,0L165,186.2l59.4,59.4a15,15,0,0,0,21.2,0,14.91,14.91,0,0,0,0-21.2L186.2,165l59.4-59.4a15,15,0,0,0-21.2-21.2L165,143.8,105.6,84.4a15,15,0,0,0-21.2,21.2L143.8,165,84.4,224.4A14.91,14.91,0,0,0,84.4,245.6Z"/></svg>