<svg xmlns="http://www.w3.org/2000/svg" viewBox="0 0 42.51 60"><defs><style>.a{fill:#fafafa;}</style></defs><title>skills_and_tools</title><path class="a" d="M.19,11.79,4,55l17.29,4.8L38.66,55l3.85-43.19ZM34.12,25.92H13.85l.48,5.43h19.3L32.18,47.62l-10.87,3-10.84-3-.74-8.32h5.32l.38,4.23,5.9,1.59h0l5.91-1.59.6-6.88H9.49l-1.43-16H34.59l-.47,5.3Z"/><path class="a" d="M4,0h2.7V2.67H9.13V0h2.71V8.09H9.13V5.38H6.66V8.09H4ZM15.39,2.68H13V0h7.47V2.68H18.1V8.09H15.39ZM21.67,0h2.81l1.74,2.84L28,0h2.82V8.09H28.08v-4L26.22,7h0L24.31,4.08v4H21.66V0ZM32.12,0h2.7V5.42h3.81V8.09H32.12Z"/></svg>