<svg xmlns="http://www.w3.org/2000/svg" viewBox="0 0 61.57 60"><defs><style>.a{fill:#f3e9d7;}</style></defs><title>indesign</title><path class="a" d="M-.57,0V60.05H61.06V0ZM2,2.53H58.48V57.47H2ZM22,41.62c0,.24,0,.33-.33.33h-4a.29.29,0,0,1-.33-.33V14c0-.25.13-.35.33-.35h4c.21,0,.29.1.29.31V41.62Zm4.56-10c0-6.13,4-10.93,10.53-10.93.55,0,.85,0,1.36,0V14a.25.25,0,0,1,.24-.26h4.18c.22,0,.26.1.26.22v24a17.55,17.55,0,0,0,.14,2.58c0,.16-.06.2-.22.3a15.78,15.78,0,0,1-6.74,1.52c-5.71,0-9.76-3.51-9.75-10.67Zm11.89-6.72a3.81,3.81,0,0,0-1.52-.26c-3.3,0-5.62,2.53-5.62,6.78,0,4.83,2.36,6.77,5.33,6.77a4.83,4.83,0,0,0,1.82-.3v-13Z"/></svg>