<svg xmlns="http://www.w3.org/2000/svg" viewBox="0 0 60.01 60"><defs><style>.a{fill:#fafafa;}</style></defs><title>skills_and_tools</title><path class="a" d="M0,0V60H60V0ZM31.74,51.13a7.06,7.06,0,0,1-4.53,3.55,10.89,10.89,0,0,1-8-1,9,9,0,0,1-3.31-3.79l4.57-2.8a2.9,2.9,0,0,1,.32.51,4.82,4.82,0,0,0,2.07,2.16c1,.33,3.1.54,3.92-1.17.51-.87.35-3.66.35-6.75,0-4.85,0-9.69,0-14.49h5.62c0,5.28,0,10.28,0,15.43C32.75,46,33,48.77,31.74,51.13Zm23.32-1.59c-2,6.68-12.85,6.9-17.2,2.48a10.16,10.16,0,0,1-2-2.78l4.56-2.63c1.22,1.88,2.35,2.91,4.39,3.33,2.76.34,5.53-.61,4.91-3.54C49,44,44,43.43,40.62,40.87a7.87,7.87,0,0,1-1.43-11.2,8,8,0,0,1,4.26-2.52l1.77-.22c3.4-.07,5.53.82,7.09,2.57a11.19,11.19,0,0,1,1.45,1.94C52,32.59,52,32.58,49.36,34.26A4.19,4.19,0,0,0,46.91,32c-1.5-.46-3.41,0-3.8,1.63a3.05,3.05,0,0,0,.11,1.76c.61,1.4,2.66,2,4.5,2.85,5.3,2.15,7.08,4.45,7.52,7.19A8.18,8.18,0,0,1,55.06,49.54Z"/></svg>