<svg xmlns="http://www.w3.org/2000/svg" viewBox="0 0 61.57 60"><defs><style>.a{fill:#fafafa;}</style></defs><title>skills_and_tools</title><path class="a" d="M0,0V60H61.57V0ZM2.58,2.56H59V57.43H2.58ZM14.9,14.05c0-.18.36-.3.58-.3,1.65-.09,4.07-.14,6.6-.14,7.11,0,9.88,3.9,9.88,8.89,0,6.52-4.73,9.31-10.52,9.31-1,0-1.31,0-2,0v9.86c0,.2-.08.3-.28.3h-4c-.21,0-.29-.08-.29-.29V14.05Zm4.54,13.62c.59,0,1.07,0,2.08,0,3,0,5.83-1.07,5.83-5.12,0-3.25-2-4.91-5.45-4.91-1,0-2,.05-2.44.09v9.9Zm22.08-3.05c-2,0-2.71,1-2.71,1.86s.46,1.56,3.17,3c4,1.95,5.3,3.8,5.3,6.56,0,4.1-3.14,6.31-7.36,6.31a11,11,0,0,1-5.25-1.11c-.17-.08-.21-.21-.21-.43V37c0-.24.12-.34.29-.2a9.41,9.41,0,0,0,5.15,1.52c2,0,2.88-.85,2.88-2,0-.93-.59-1.74-3.16-3.09-3.66-1.74-5.17-3.52-5.17-6.48,0-3.31,2.58-6.05,7-6.05a12.24,12.24,0,0,1,4.61.71.57.57,0,0,1,.25.51v3.51c0,.21-.14.34-.38.25a9.14,9.14,0,0,0-4.46-1.08Z"/></svg>