<svg xmlns="http://www.w3.org/2000/svg" viewBox="0 0 59.82 60"><defs><style>.a{fill:#fafafa;}</style></defs><title>skills_and_tools</title><path class="a" d="M7.41,30A21.86,21.86,0,0,0,20.09,49.72L9.36,21.08A21.31,21.31,0,0,0,7.41,30ZM45.1,28.89a11.28,11.28,0,0,0-1.86-6C42.11,21,41,19.51,41,17.71a3.84,3.84,0,0,1,3.78-3.89l.3,0a22.89,22.89,0,0,0-34,4.12l1.44,0c2.35,0,6-.28,6-.28a.91.91,0,1,1,.14,1.81s-1.21.14-2.57.21l8.19,23.73,4.93-14.38-3.51-9.35c-1.21-.07-2.35-.21-2.35-.21a.91.91,0,1,1,.14-1.81s3.71.28,5.92.28,6-.28,6-.28a.91.91,0,1,1,.15,1.81s-1.22.14-2.58.21l8.13,23.55L43.39,36c1-3,1.71-5.21,1.71-7.09Zm-14.8,3L23.56,51a23,23,0,0,0,13.82-.34,2.19,2.19,0,0,1-.16-.3L30.3,31.92ZM49.66,19.49a17.45,17.45,0,0,1,.15,2.25,20.32,20.32,0,0,1-1.71,7.85L41.22,48.94A21.81,21.81,0,0,0,52.41,30a21.41,21.41,0,0,0-2.75-10.51ZM29.91,0a30,30,0,1,0,30,30A30,30,0,0,0,29.91,0Zm0,56.25A26.25,26.25,0,1,1,56.16,30,26.25,26.25,0,0,1,29.91,56.25Z"/></svg>