<svg xmlns="http://www.w3.org/2000/svg" viewBox="0 0 210 210"><defs><style>.a{fill:#f3e9d7;}</style></defs><title>Mesa de trabajo 1</title><path class="a" d="M195,0H175a15,15,0,0,0-15,15V35a15,15,0,0,0,15,15h20a15,15,0,0,0,15-15V15A15,15,0,0,0,195,0Z"/><path class="a" d="M115,0H95A15,15,0,0,0,80,15V35A15,15,0,0,0,95,50h20a15,15,0,0,0,15-15V15A15,15,0,0,0,115,0Z"/><path class="a" d="M35,0H15A15,15,0,0,0,0,15V35A15,15,0,0,0,15,50H35A15,15,0,0,0,50,35V15A15,15,0,0,0,35,0Z"/><path class="a" d="M195,160H175a15,15,0,0,0-15,15v20a15,15,0,0,0,15,15h20a15,15,0,0,0,15-15V175A15,15,0,0,0,195,160Z"/><path class="a" d="M115,160H95a15,15,0,0,0-15,15v20a15,15,0,0,0,15,15h20a15,15,0,0,0,15-15V175A15,15,0,0,0,115,160Z"/><path class="a" d="M35,160H15A15,15,0,0,0,0,175v20a15,15,0,0,0,15,15H35a15,15,0,0,0,15-15V175A15,15,0,0,0,35,160Z"/><path class="a" d="M195,80H175a15,15,0,0,0-15,15v20a15,15,0,0,0,15,15h20a15,15,0,0,0,15-15V95A15,15,0,0,0,195,80Z"/><path class="a" d="M115,80H95A15,15,0,0,0,80,95v20a15,15,0,0,0,15,15h20a15,15,0,0,0,15-15V95A15,15,0,0,0,115,80Z"/><path class="a" d="M35,80H15A15,15,0,0,0,0,95v20a15,15,0,0,0,15,15H35a15,15,0,0,0,15-15V95A15,15,0,0,0,35,80Z"/></svg>