<svg xmlns="http://www.w3.org/2000/svg" viewBox="0 0 66.7 60"><defs><style>.a{fill:#f3e9d7;}</style></defs><title>react</title><circle class="a" cx="33.39" cy="29.75" r="6.07"/><path class="a" d="M56.43,19.74c-1.17-.42-2.39-.85-3.67-1.22.32-1.28.58-2.56.8-3.78,1.11-7-.11-12-3.51-13.89A6.69,6.69,0,0,0,46.64,0c-3.72,0-8.46,2.77-13.25,7.4C28.6,2.77,23.87,0,20.14,0a6.69,6.69,0,0,0-3.41.85c-3.4,2-4.62,6.92-3.51,13.89.22,1.22.48,2.5.8,3.78a35.87,35.87,0,0,0-3.67,1.22C3.7,22.3.08,25.81.08,29.75s3.67,7.44,10.27,10c1.17.42,2.39.85,3.67,1.22-.32,1.28-.58,2.56-.8,3.78-1.11,7,.11,12,3.51,13.89a6.69,6.69,0,0,0,3.41.85c3.78,0,8.51-2.77,13.25-7.4,4.79,4.63,9.53,7.4,13.25,7.4a6.69,6.69,0,0,0,3.41-.85c3.4-2,4.62-6.92,3.51-13.89-.22-1.22-.48-2.5-.8-3.78a35.87,35.87,0,0,0,3.67-1.22c6.65-2.56,10.27-6.07,10.27-10S63.08,22.3,56.43,19.74ZM48.56,3.51c2.18,1.28,2.92,5.22,2,10.8a32.32,32.32,0,0,1-.75,3.52,61.88,61.88,0,0,0-8.78-1.33,75.82,75.82,0,0,0-5.53-6.92C39.46,5.69,43.45,3,46.69,3A3.64,3.64,0,0,1,48.56,3.51Zm-6,31.56c-1,1.7-2.08,3.4-3.25,5.1-2,.16-3.94.22-6,.22s-4-.06-6-.22q-1.75-2.55-3.19-5.1c-1-1.76-2-3.57-2.82-5.32.85-1.76,1.81-3.57,2.82-5.33s2.07-3.4,3.24-5.1c2-.16,3.94-.22,6-.22s4.05.06,6,.22q1.76,2.55,3.2,5.1c1,1.76,2,3.57,2.82,5.33C44.51,31.5,43.61,33.26,42.6,35.07ZM47,33.31c.8,1.86,1.44,3.67,2,5.48a55.09,55.09,0,0,1-5.74,1c.64-1,1.33-2.07,1.91-3.19S46.43,34.37,47,33.31ZM33.39,47.73a57,57,0,0,1-3.67-4.42c1.22.06,2.45.11,3.67.11s2.45-.05,3.67-.11A57,57,0,0,1,33.39,47.73Zm-9.9-8c-2-.27-3.93-.59-5.74-1,.58-1.76,1.22-3.62,2-5.48.58,1.06,1.17,2.18,1.81,3.24S22.85,38.68,23.49,39.75ZM19.77,26.18c-.8-1.86-1.44-3.67-2-5.48a55.56,55.56,0,0,1,5.74-1c-.64,1-1.33,2.07-1.91,3.19S20.35,25.12,19.77,26.18ZM33.39,11.76a57,57,0,0,1,3.67,4.42c-1.22-.06-2.45-.11-3.67-.11s-2.45.05-3.67.11A57,57,0,0,1,33.39,11.76ZM45.2,22.93l-1.91-3.19c2,.27,3.94.59,5.74,1-.58,1.76-1.22,3.62-2,5.48C46.43,25.12,45.84,24,45.2,22.93Zm-29-8.62c-.9-5.58-.16-9.52,2-10.8A3.64,3.64,0,0,1,20.09,3c3.19,0,7.18,2.61,11.17,6.55a69.53,69.53,0,0,0-5.53,6.92A70,70,0,0,0,17,17.83C16.63,16.6,16.42,15.43,16.2,14.31ZM3.06,29.75c0-2.51,3-5.17,8.35-7.14a34,34,0,0,1,3.41-1.11A76.63,76.63,0,0,0,18,29.8a66.89,66.89,0,0,0-3.19,8.25C7.48,35.92,3.06,32.73,3.06,29.75ZM18.22,56c-2.18-1.28-2.92-5.22-2-10.8A32.32,32.32,0,0,1,17,41.66,61.88,61.88,0,0,0,25.73,43a75.82,75.82,0,0,0,5.53,6.92c-3.94,3.89-7.93,6.55-11.17,6.55A3.64,3.64,0,0,1,18.22,56Zm32.36-10.8c.9,5.58.16,9.52-2,10.8a3.64,3.64,0,0,1-1.87.48c-3.19,0-7.18-2.61-11.17-6.55A69.53,69.53,0,0,0,41.05,43a70,70,0,0,0,8.78-1.33C50.15,42.89,50.36,44.06,50.58,45.18Zm4.79-8.3A34,34,0,0,1,52,38a76.63,76.63,0,0,0-3.19-8.3A66.89,66.89,0,0,0,52,21.44c7.34,2.13,11.76,5.33,11.76,8.31C63.72,32.25,60.63,34.91,55.37,36.88Z"/></svg>