<svg xmlns="http://www.w3.org/2000/svg" viewBox="0 0 80.01 60"><defs><style>.a{fill:#f3e9d7;}</style></defs><title>sass</title><path class="a" d="M68.89,34.49a16.7,16.7,0,0,0-7.25,1.68A15.35,15.35,0,0,1,60,32.42a10.18,10.18,0,0,1-.14-3.16,26,26,0,0,1,.95-3.4c0-.15-.18-.84-1.79-.85s-3,.3-3.15.73a18.3,18.3,0,0,0-.68,2.38c-.27,1.46-3.21,6.68-4.89,9.41a9.15,9.15,0,0,1-1.26-5.9A30.19,30.19,0,0,1,50,28.22c0-.14-.17-.83-1.78-.85s-3,.31-3.16.74-.33,1.41-.67,2.38-4.24,9.67-5.26,11.92c-.53,1.16-1,2.08-1.3,2.71h0l-.06.11-.44.84h0c-.22.39-.45.76-.57.76a4.82,4.82,0,0,1,0-2.48c.59-3,2-7.73,2-7.9s.26-.9-.91-1.33a1.45,1.45,0,0,0-1.65.28c-.1,0-.17.25-.17.25s1.27-5.29-2.43-5.29c-2.31,0-5.49,2.53-7.07,4.81-1,.54-3.12,1.69-5.38,2.94-.86.48-1.75,1-2.59,1.41l-.17-.19C13.92,34.56,5.64,31.19,6,24.77c.13-2.33.93-8.47,15.88-15.92C34.18,2.78,44,4.46,45.67,8.19c2.43,5.32-5.25,15.2-18,16.63-4.85.54-7.39-1.33-8-2s-.77-.78-1-.63c-.41.22-.15.87,0,1.25A7.46,7.46,0,0,0,23.24,27c2.34.76,8,1.19,14.91-1.47,7.7-3,13.72-11.27,12-18.21S36.64-2,25.58,1.9C19,4.24,11.87,7.92,6.74,12.72.65,18.42-.32,23.37.08,25.45,1.49,32.81,11.65,37.6,15.71,41.16l-.55.3c-2,1-9.78,5.06-11.71,9.34-2.19,4.85.35,8.33,2,8.8C10.7,61,16.06,58.44,18.94,54.15s2.53-9.88,1.2-12.44a.24.24,0,0,0-.06-.09l1.6-.93c1-.62,2.06-1.19,2.93-1.65a19.35,19.35,0,0,0-1,5.32c-.22,2.74.9,6.31,2.38,7.71a2.6,2.6,0,0,0,1.93.63c1.72,0,2.5-1.43,3.36-3.13,1-2.07,2-4.48,2-4.48s-1.18,6.51,2,6.51c1.17,0,2.35-1.52,2.88-2.29h0l.09-.14c.11-.19.19-.31.19-.31v0c.46-.82,1.52-2.67,3.08-5.76,2-4,4-8.94,4-8.94a26.16,26.16,0,0,0,.78,3.23,31.4,31.4,0,0,0,1.66,3.74c-.47.66-.76,1-.76,1l0,0c-.38.5-.79,1-1.25,1.56a46,46,0,0,0-3.75,4.71,1.27,1.27,0,0,0,.35,1.72,3.15,3.15,0,0,0,2,.32,8.84,8.84,0,0,0,2.93-.67A9.68,9.68,0,0,0,50,48.46a5.63,5.63,0,0,0,2.43-5A10.2,10.2,0,0,0,51.46,40l.42-.62a67.5,67.5,0,0,0,4.39-7.57A24.31,24.31,0,0,0,57,35a20.72,20.72,0,0,0,1.42,3.22,13.81,13.81,0,0,0-4.27,5.51c-.92,2.66-.2,3.86,1.16,4.13a4.06,4.06,0,0,0,2.13-.44A9.61,9.61,0,0,0,60.18,46c1.57-1.16,3.07-2.77,3-4.94a9.11,9.11,0,0,0-.67-2.93,15.4,15.4,0,0,1,7.76-.89c7,.82,8.33,5.16,8.07,7a4.69,4.69,0,0,1-2.21,3.13c-.48.3-.64.4-.6.62s.29.31.7.25A5.42,5.42,0,0,0,80,43.44c.22-4.3-3.87-9-11.11-8.95ZM15.23,52.58c-2.31,2.52-5.52,3.47-6.91,2.66S7.41,50.67,10.25,48a36.5,36.5,0,0,1,5.42-4l1.43-.86.16-.09h0l.35-.22a10,10,0,0,1-2.38,9.79ZM32,41.16c-.81,2-2.49,7-3.51,6.69s-1.42-4-.18-7.79a17.42,17.42,0,0,1,2.74-5c1.25-1.41,2.64-1.87,3-1.3.42.74-1.54,6.18-2,7.41ZM45.9,47.79c-.33.18-.65.29-.8.2s.15-.29.15-.29S47,45.83,47.67,45c.4-.49.87-1.08,1.36-1.73v.19c0,2.23-2.16,3.74-3.13,4.35Zm10.7-2.44c-.25-.18-.2-.76.63-2.59a9.84,9.84,0,0,1,2.38-3.07A4.19,4.19,0,0,1,59.85,41a4.43,4.43,0,0,1-3.25,4.31Z"/></svg>