<svg xmlns="http://www.w3.org/2000/svg" viewBox="0 0 59.83 60"><defs><style>.a{fill:#f3e9d7;}</style></defs><title>trello</title><path class="a" d="M59.83,7.17A7.22,7.22,0,0,0,52.61,0H7A7.23,7.23,0,0,0-.27,7.17V52.83A7.23,7.23,0,0,0,7,60.05H52.61a7.22,7.22,0,0,0,7.22-7.22ZM26.92,47A3.2,3.2,0,0,1,23.54,50h-13A3,3,0,0,1,7.37,47V10.55A3.29,3.29,0,0,1,10.5,7.11h13a3.51,3.51,0,0,1,3.38,3.44Zm26.24-31.7V30.46a3.29,3.29,0,0,1-3.22,3.36h-13a3.36,3.36,0,0,1-3.3-3.36V10.38a3.28,3.28,0,0,1,3.3-3.27h13a3.21,3.21,0,0,1,3.22,3.27Z"/></svg>