<svg xmlns="http://www.w3.org/2000/svg" viewBox="0 0 74.82 60"><defs><style>.a{fill:#f3e9d7;}</style></defs><title>zeplin</title><path class="a" d="M11.53,41.46,7.62,42.89,7.41,54.53l13.55-5c-4.65-1.56-8-4.3-9.43-8.12"/><path class="a" d="M13.58,29.14,0,34.11l7.62,8.78,3.91-1.43c-1.38-3.81-.52-8.11,2.05-12.32"/><path class="a" d="M36.44,12.34C19.14,18.66,8,31.7,11.53,41.46L74.16,18.58C70.62,8.82,53.73,6,36.44,12.34"/><path class="a" d="M49.26,47.7c17.29-6.32,28.46-19.3,24.9-29.12L11.53,41.46C15.09,51.28,32,54,49.26,47.7"/><path class="a" d="M74.16,18.58,11.53,41.46c1.23,3.38,5.91,5,12.47,5,6.4,0,14.58-1.59,23.12-4.7,17.3-6.32,29.46-16.55,27-23.23"/><path class="a" d="M61.7,13.53c-6.4,0-14.59,1.59-23.13,4.7-17.29,6.32-29.46,16.55-27,23.23L74.16,18.58c-1.23-3.38-5.9-5-12.46-5"/><path class="a" d="M58.24,55.15c-1.85,0-4.56-1.66-8.08-4.95a104.17,104.17,0,0,1-13.43-16A104.17,104.17,0,0,1,26.33,16c-2.41-5.72-2.76-9.24-1-10.46a2.29,2.29,0,0,1,1.37-.4c1.4,0,4.15,1.05,9.23,6l.11.11,0,.16-.09,1.08,0,.7-.5-.5c-5.47-5.51-7.88-6.1-8.66-6.1a.9.9,0,0,0-.53.13c-.75.53-.8,3.12,1.53,8.66A103.67,103.67,0,0,0,37.94,33.33,102.29,102.29,0,0,0,51.17,49.11c4.41,4.12,6.39,4.56,7,4.56a1,1,0,0,0,.55-.14c.79-.56.79-3.33-1.82-9.3L56.82,44l.26-.14c.26-.14.52-.28.75-.42l.32-.18.15.33c1.84,4.24,3.57,9.62,1.3,11.21a2.35,2.35,0,0,1-1.36.4Zm0-.65v0Z"/><path class="a" d="M49.68,47.52l0,.32c-.44,5.41-1.59,11.92-4.59,12.18h-.18c-2,0-4-2.92-5.74-8.69a105.33,105.33,0,0,1-3.65-20.6,105.29,105.29,0,0,1,0-20.94C36.29,3.64,37.74.41,39.85.23H40c1.48,0,3.71,1.67,6,9.48L44.54,10A30.86,30.86,0,0,0,42.13,3.8C41.36,2.45,40.62,1.71,40,1.71H40c-.91.08-2.24,2.3-3,8.28a103.58,103.58,0,0,0,0,20.62,103.92,103.92,0,0,0,3.59,20.3,28.32,28.32,0,0,0,2.33,5.71c.73,1.24,1.44,1.92,2,1.92h0c.88-.08,2.52-2.39,3.22-10.5Z"/></svg>