<svg xmlns="http://www.w3.org/2000/svg" viewBox="0 0 60.01 60"><defs><style>.a{fill:#f3e9d7;}</style></defs><title>git</title><path class="a" d="M58.87,27.33,32.68,1.13a3.86,3.86,0,0,0-5.46,0L21.13,7.21l4.58,4.58a5.73,5.73,0,0,1,2.42-.55,5.62,5.62,0,0,1,5.08,8l7.5,7.5a5.62,5.62,0,1,1-3.2,5.08,5.52,5.52,0,0,1,.55-2.43L30.56,22a5.31,5.31,0,0,1-.55.23V37.82a5.63,5.63,0,1,1-3.76,0V22.18a5.63,5.63,0,0,1-3.2-7.73L18.47,9.87,1.14,27.2a3.86,3.86,0,0,0,0,5.46l26.2,26.2a3.87,3.87,0,0,0,5.47,0L58.88,32.79a3.85,3.85,0,0,0,0-5.46Z"/></svg>