<svg xmlns="http://www.w3.org/2000/svg" viewBox="0 0 75.29 60"><defs><style>.a{fill:#fafafa;}.b{fill:#022c3f;stroke:#fafafa;}</style></defs><title>skills_and_tools</title><path class="a" d="M8.31,7.84A7.49,7.49,0,0,1,15.64,0h44A7.49,7.49,0,0,1,67,7.84,42.34,42.34,0,0,0,68.31,21c1.28,4.15,3.44,6.77,7,7.11v3.82c-3.54.34-5.7,3-7,7.11A42.34,42.34,0,0,0,67,52.16,7.49,7.49,0,0,1,59.66,60h-44a7.49,7.49,0,0,1-7.33-7.84A42.34,42.34,0,0,0,7,39c-1.28-4.15-3.45-6.77-7-7.11V28.09c3.54-.34,5.71-3,7-7.11A42.34,42.34,0,0,0,8.31,7.84Z"/><path class="b" d="M39.28,46c7,0,11.15-3.41,11.15-9,0-4.25-3-7.32-7.43-7.81v-.18A7.13,7.13,0,0,0,48.82,22c0-4.82-3.81-8-9.61-8h-13V46Zm-8-27.87H38c3.67,0,5.75,1.64,5.75,4.6,0,3.17-2.42,4.94-6.82,4.94H31.24Zm0,23.82V31.4h6.7c4.81,0,7.3,1.77,7.3,5.22s-2.43,5.28-7,5.28Z"/></svg>