<svg xmlns="http://www.w3.org/2000/svg" viewBox="0 0 49.84 60"><defs><style>.a{fill:#fafafa;}</style></defs><title>skills_and_tools</title><path class="a" d="M0,45.78c2.84-2.15,5.69-4.28,8.5-6.46.66-.52,1-.45,1.53.19a24.83,24.83,0,0,0,7,6.31,16.12,16.12,0,0,0,18.33-1.35A25.27,25.27,0,0,0,40,39.76c.57-.78,1-.81,1.77-.23,2.48,1.9,5,3.74,7.54,5.58.6.43.79.82.29,1.46-4.46,5.76-9.83,10.29-17,12.29-1.43.4-2.92.61-4.38.92H22.38a3.14,3.14,0,0,0-.58-.16c-6-.64-11-3.28-15.56-7.07A53.83,53.83,0,0,1,0,46Z"/><path class="a" d="M49,20.52a.94.94,0,0,1-.35.64c-2.19,2.51-4.39,5-6.54,7.54-.53.63-.93.55-1.47.07q-5.55-4.86-11.13-9.71c-1.15-1-2.33-2-3.45-3a1.12,1.12,0,0,0-1.78,0c-3.12,2.75-6.28,5.45-9.42,8.17-1.79,1.54-3.6,3.06-5.37,4.63-.55.49-.86.49-1.35-.1Q5,25,1.77,21.33c-.56-.63-.52-1,.09-1.53,2.89-2.45,5.75-4.94,8.63-7.41,4.66-4,9.33-8,14-12.06.61-.53,1-.5,1.59,0Q35,8.17,44,16l4.59,4A1.18,1.18,0,0,1,49,20.52Z"/></svg>