<svg xmlns="http://www.w3.org/2000/svg" viewBox="0 0 61.51 60"><defs><style>.a,.b{fill:#fafafa;}.a{fill-rule:evenodd;}</style></defs><title>skills_and_tools</title><path class="a" d="M30.76,0A30.76,30.76,0,0,0,21,60c1.53.28,2.1-.67,2.1-1.48s0-3.16-.05-5.73c-8.55,1.86-10.36-3.63-10.36-3.63-1.4-3.55-3.41-4.5-3.41-4.5-2.8-1.91.21-1.87.21-1.87,3.08.22,4.71,3.17,4.71,3.17,2.75,4.7,7.2,3.34,9,2.56a6.59,6.59,0,0,1,2-4.12c-6.84-.77-14-3.41-14-15.2A11.89,11.89,0,0,1,14.3,20.9a11.06,11.06,0,0,1,.3-8.14s2.58-.83,8.46,3.15a29,29,0,0,1,15.4,0c5.88-4,8.46-3.15,8.46-3.15a11.06,11.06,0,0,1,.3,8.14,11.86,11.86,0,0,1,3.16,8.25c0,11.82-7.19,14.42-14,15.18,1.1,1,2.08,2.83,2.08,5.7,0,4.11,0,7.42,0,8.44,0,.82.55,1.78,2.11,1.47A30.76,30.76,0,0,0,30.76,0Z"/><path class="b" d="M11.65,44.16c-.07.16-.31.2-.53.1s-.35-.31-.27-.46.3-.2.53-.1.35.31.27.46Zm1.25,1.39a.46.46,0,0,1-.63-.14.47.47,0,0,1-.09-.64.49.49,0,0,1,.63.14c.2.22.24.51.09.64Zm1.21,1.77c-.19.14-.5,0-.69-.26s-.19-.6,0-.73.49,0,.68.25.19.61,0,.74ZM15.77,49a.71.71,0,0,1-1-.91.59.59,0,0,1,.79.12c.27.25.35.6.17.79Zm2.29,1c-.07.24-.42.35-.77.25s-.57-.39-.5-.63.42-.36.77-.25S18.13,49.79,18.06,50Zm2.52.18c0,.26-.29.47-.65.47s-.67-.19-.67-.44.29-.47.66-.47.66.19.66.44Zm2.34-.39c0,.24-.21.5-.57.56s-.69-.08-.73-.33.21-.51.57-.57.69.09.73.34Z"/></svg>