<?xml version="1.0" encoding="utf-8"?>
<!-- Generator: Adobe Illustrator 24.0.2, SVG Export Plug-In . SVG Version: 6.00 Build 0)  -->
<svg version="1.1" id="Layer_1" xmlns="http://www.w3.org/2000/svg" xmlns:xlink="http://www.w3.org/1999/xlink" x="0px" y="0px"
	 viewBox="0 0 210 210" style="enable-background:new 0 0 210 210;" xml:space="preserve">
<style type="text/css">
	.st0{fill:#FAFAFA;}
</style>
<g id="XMLID_12_">
	<path id="XMLID_13_" class="st0" d="M195,0h-20c-8.3,0-15,6.7-15,15v20c0,8.3,6.7,15,15,15h20c8.3,0,15-6.7,15-15V15
		C210,6.7,203.3,0,195,0z"/>
	<path id="XMLID_14_" class="st0" d="M115,0H95c-8.3,0-15,6.7-15,15v20c0,8.3,6.7,15,15,15h20c8.3,0,15-6.7,15-15V15
		C130,6.7,123.3,0,115,0z"/>
	<path id="XMLID_15_" class="st0" d="M35,0H15C6.7,0,0,6.7,0,15v20c0,8.3,6.7,15,15,15h20c8.3,0,15-6.7,15-15V15C50,6.7,43.3,0,35,0
		z"/>
	<path id="XMLID_16_" class="st0" d="M195,160h-20c-8.3,0-15,6.7-15,15v20c0,8.3,6.7,15,15,15h20c8.3,0,15-6.7,15-15v-20
		C210,166.7,203.3,160,195,160z"/>
	<path id="XMLID_17_" class="st0" d="M115,160H95c-8.3,0-15,6.7-15,15v20c0,8.3,6.7,15,15,15h20c8.3,0,15-6.7,15-15v-20
		C130,166.7,123.3,160,115,160z"/>
	<path id="XMLID_18_" class="st0" d="M35,160H15c-8.3,0-15,6.7-15,15v20c0,8.3,6.7,15,15,15h20c8.3,0,15-6.7,15-15v-20
		C50,166.7,43.3,160,35,160z"/>
	<path id="XMLID_19_" class="st0" d="M195,80h-20c-8.3,0-15,6.7-15,15v20c0,8.3,6.7,15,15,15h20c8.3,0,15-6.7,15-15V95
		C210,86.7,203.3,80,195,80z"/>
	<path id="XMLID_20_" class="st0" d="M115,80H95c-8.3,0-15,6.7-15,15v20c0,8.3,6.7,15,15,15h20c8.3,0,15-6.7,15-15V95
		C130,86.7,123.3,80,115,80z"/>
	<path id="XMLID_21_" class="st0" d="M35,80H15C6.7,80,0,86.7,0,95v20c0,8.3,6.7,15,15,15h20c8.3,0,15-6.7,15-15V95
		C50,86.7,43.3,80,35,80z"/>
</g>
</svg>
