<?xml version="1.0" encoding="utf-8"?>
<!-- Generator: Adobe Illustrator 24.0.2, SVG Export Plug-In . SVG Version: 6.00 Build 0)  -->
<svg version="1.1" id="Capa_1" xmlns="http://www.w3.org/2000/svg" xmlns:xlink="http://www.w3.org/1999/xlink" x="0px" y="0px"
	 viewBox="0 0 330 330" style="enable-background:new 0 0 330 330;" xml:space="preserve">
<style type="text/css">
	.st0{fill:#FAFAFA;}
</style>
<g>
	<path class="st0" d="M315,0H15C6.7,0,0,6.7,0,15v300c0,8.3,6.7,15,15,15h300c8.3,0,15-6.7,15-15V15C330,6.7,323.3,0,315,0z
		 M300,300H30V30h270V300z"/>
	<path class="st0" d="M84.4,245.6c2.9,2.9,6.8,4.4,10.6,4.4c3.8,0,7.7-1.5,10.6-4.4l59.4-59.4l59.4,59.4c2.9,2.9,6.8,4.4,10.6,4.4
		c3.8,0,7.7-1.5,10.6-4.4c5.9-5.9,5.9-15.4,0-21.2L186.2,165l59.4-59.4c5.9-5.9,5.9-15.4,0-21.2c-5.9-5.9-15.4-5.9-21.2,0L165,143.8
		l-59.4-59.4c-5.9-5.9-15.4-5.9-21.2,0c-5.9,5.9-5.9,15.4,0,21.2l59.4,59.4l-59.4,59.4C78.5,230.3,78.5,239.7,84.4,245.6z"/>
</g>
</svg>
