<svg xmlns="http://www.w3.org/2000/svg" viewBox="0 0 61.57 60"><defs><style>.a{fill:#fafafa;}</style></defs><title>skills_and_tools</title><path class="a" d="M0,0V60H61.57V0ZM2.56,2.56H59V57.45H2.56ZM21.36,34l-2,7.68c0,.22-.12.26-.37.26H15.19c-.26,0-.3-.08-.26-.37l7.28-25.51a8.14,8.14,0,0,0,.24-2.15c0-.18.1-.25.22-.25h5.38c.18,0,.26,0,.3.25l8.17,27.69c0,.21,0,.33-.21.33H32.08c-.22,0-.34-.05-.38-.22L29.58,34l-8.22,0Zm7.15-4.18c-.72-2.83-2.41-9-3.05-12h-.05c-.55,3-1.9,8.07-3,12ZM40.06,15.56a2.63,2.63,0,1,1,5.25,0,2.46,2.46,0,0,1-2.68,2.62,2.39,2.39,0,0,1-2.57-2.62Zm.29,5.82c0-.2.08-.28.28-.28h4c.23,0,.31.08.31.3V41.65c0,.2,0,.28-.3.28h-4c-.26,0-.34-.12-.34-.32V21.38Z"/></svg>