<svg xmlns="http://www.w3.org/2000/svg" viewBox="0 0 53.34 60"><defs><style>.a{fill:#fafafa;}</style></defs><title>skills_and_tools</title><path class="a" d="M10.22,17.77,7.4,16.16a.59.59,0,0,1-.29-.5V12.22a.58.58,0,0,0-.29-.5L5.62,11A.57.57,0,0,0,5.33,11a.6.6,0,0,0-.28.08l-1.2.69a.59.59,0,0,0-.29.5v3.44a.59.59,0,0,1-.29.5L.45,17.77a.26.26,0,0,1-.29,0A.27.27,0,0,1,0,17.53l0-7.37a.54.54,0,0,1,.29-.49L5,6.93a.5.5,0,0,1,.26-.08h0a.84.84,0,0,1,.27.08l4.75,2.74a.58.58,0,0,1,.28.49v7.37a.29.29,0,0,1-.14.24A.26.26,0,0,1,10.22,17.77Zm18.29-2V10.31a.58.58,0,0,1,.29-.5l4.76-2.74a.53.53,0,0,1,.57,0l1.19.68a.18.18,0,0,0,.2,0,.19.19,0,0,0,.1-.17V.28A.29.29,0,0,1,35.76,0a.28.28,0,0,1,.29,0l2.83,1.58a.57.57,0,0,1,.29.5V15.81a.55.55,0,0,1-.29.49l-4.75,2.75a.55.55,0,0,1-.58,0L28.79,16.3A.58.58,0,0,1,28.51,15.8ZM32.05,14a.15.15,0,0,0,.07.13l1.64.94a.17.17,0,0,0,.14,0l1.63-.94a.16.16,0,0,0,.08-.13V12.11a.13.13,0,0,0-.08-.12L33.9,11a.19.19,0,0,0-.15,0l-1.63,1a.14.14,0,0,0-.07.12Zm21-4.25L48.33,7a.53.53,0,0,0-.57,0L43,9.74a.56.56,0,0,0-.29.49v5.49a.57.57,0,0,0,.29.5l4.72,2.7a.58.58,0,0,0,.57,0l2.86-1.58a.29.29,0,0,0,.14-.25.26.26,0,0,0-.14-.25l-4.79-2.75a.27.27,0,0,1-.14-.25V12.12a.29.29,0,0,1,.14-.25L47.85,11a.3.3,0,0,1,.29,0l1.49.86a.29.29,0,0,1,.14.25v1.35a.31.31,0,0,0,.15.25.3.3,0,0,0,.29,0l2.84-1.65a.59.59,0,0,0,.29-.5V10.24A.54.54,0,0,0,53.06,9.74ZM14.55,16.19l4.75,2.75a.55.55,0,0,0,.58,0l4.75-2.75a.56.56,0,0,0,.29-.49V10.2a.56.56,0,0,0-.29-.49L19.88,7a.6.6,0,0,0-.58,0L14.55,9.71a.56.56,0,0,0-.29.49v5.5A.58.58,0,0,0,14.55,16.19ZM42.88,28.86,28.21,20.39a3.24,3.24,0,0,0-3.08,0L10.47,28.86a3.1,3.1,0,0,0-1.54,2.67V48.45a3.11,3.11,0,0,0,1.54,2.68l3.85,2.21a6.26,6.26,0,0,0,3.38.92c2.75,0,4.34-1.66,4.34-4.57V33a.42.42,0,0,0-.42-.42H19.75a.42.42,0,0,0-.42.42V49.69c0,1.29-1.34,2.57-3.52,1.48l-4-2.32a.45.45,0,0,1-.23-.39V31.54a.5.5,0,0,1,.23-.41l14.66-8.45a.45.45,0,0,1,.45,0l14.65,8.45a.49.49,0,0,1,.23.41V48.46a.47.47,0,0,1-.23.4L26.89,57.31a.45.45,0,0,1-.45,0l-3.76-2.23a.36.36,0,0,0-.36,0,9.94,9.94,0,0,1-2.21,1c-.24.08-.6.22.13.63l4.9,2.9a3.1,3.1,0,0,0,3.08,0l14.66-8.46a3.11,3.11,0,0,0,1.54-2.68V31.54A3.13,3.13,0,0,0,42.88,28.86Zm-11.11,18c-4.37,0-5.34-1.1-5.65-3.28a.48.48,0,0,0-.48-.4H23.5a.48.48,0,0,0-.48.48c0,2.78,1.52,6.1,8.75,6.1C37,49.74,40,47.68,40,44.08s-2.42-4.52-7.5-5.19-5.66-1-5.66-2.24c0-1,.44-2.31,4.25-2.31,3.4,0,4.64.73,5.16,3a.47.47,0,0,0,.46.37h2.15a.48.48,0,0,0,.48-.52c-.34-4-3-5.78-8.25-5.78-4.72,0-7.53,2-7.53,5.32,0,3.62,2.8,4.62,7.32,5.06,5.41.54,5.83,1.33,5.83,2.39C36.74,46.06,35.26,46.84,31.77,46.84Zm16.32-35a.11.11,0,0,0-.11,0l-.92.53a.11.11,0,0,0-.05.1v1.05a.14.14,0,0,0,.05.1l.92.52a.11.11,0,0,0,.11,0l.91-.52a.11.11,0,0,0,.06-.1V12.43a.11.11,0,0,0-.06-.1Z"/></svg>