<svg xmlns="http://www.w3.org/2000/svg" viewBox="0 0 59.83 60"><defs><style>.a{fill:#fafafa;}</style></defs><title>skills_and_tools</title><path class="a" d="M12.49,37.93a6.31,6.31,0,1,1-6.31-6.32h6.31Zm3.18,0a6.32,6.32,0,1,1,12.63,0v15.8a6.32,6.32,0,1,1-12.63,0Z"/><path class="a" d="M22,12.58A6.32,6.32,0,1,1,28.3,6.27v6.31Zm0,3.18a6.32,6.32,0,0,1,0,12.63H6.18a6.32,6.32,0,0,1,0-12.63Z"/><path class="a" d="M47.34,22.07a6.32,6.32,0,1,1,6.31,6.32H47.34Zm-3.18,0a6.32,6.32,0,1,1-12.63,0V6.26a6.32,6.32,0,1,1,12.63,0Z"/><path class="a" d="M37.84,47.42a6.32,6.32,0,1,1-6.31,6.31V47.42Zm0-3.18a6.32,6.32,0,0,1,0-12.63H53.65a6.32,6.32,0,1,1,0,12.63Z"/></svg>